# xmcd CD database file
#
# Track frame offsets:
#	150
#	900
#	1650
#	2400
#	3150
#	3900
#	4650
#	5400
#	6150
#	6900
#	7650
#	8400
#	247378
#
# Disc length: 4440 seconds
#
# Revision: 14
# Processed by: cddbd v1.5.2PL0 Copyright (c) Steve Scherf et al.
# Submitted via: CDex 1.51
#
DISCID=5e11560d
DTITLE=PE'Z - KUGATSU NO SOLA
DYEAR=1900
DGENRE=Jazz
TTITLE0=Ready! ??????????????????
TTITLE1=Mosquito-38
TTITLE2=Akatsuki
TTITLE3=Let it go
TTITLE4=?????????? ?Black Skyline?
TTITLE5=I'M A SLUGGER
TTITLE6=Peach ?Ashihara story?(ex.004)
TTITLE7=Song For My Buffalo
TTITLE8=across you
TTITLE9=SPIRIT
TTITLE10=Amny
TTITLE11=Hale no sola sita ?LA YELLOW SAMBA?
TTITLE12=Bonus Track
EXTD=
EXTT0=
EXTT1=
EXTT2=
EXTT3=
EXTT4=
EXTT5=
EXTT6=
EXTT7=
EXTT8=
EXTT9=
EXTT10=
EXTT11=
EXTT12=
PLAYORDER=
